<svg xmlns="http://www.w3.org/2000/svg" viewBox="0 0 299.3 129.28"><defs><style>.cls-1{fill:#000064;}.cls-2{fill:blue;}</style></defs><title>migo_logo--full</title><g id="Layer_2" data-name="Layer 2"><g id="Layer_1-2" data-name="Layer 1"><rect class="cls-1" x="118.07" y="36.98" width="21.66" height="61.4"/><path class="cls-1" d="M197.6,43.44a23.79,23.79,0,0,0-18.31-8.14,29.68,29.68,0,0,0-22.2,9.64,33.62,33.62,0,0,0-6.52,10.53,35.19,35.19,0,0,0-2.4,13.1,34.46,34.46,0,0,0,2.22,12.63,27.94,27.94,0,0,0,15.74,16.1,31.46,31.46,0,0,0,12.08,2.27,33.54,33.54,0,0,0,5.51-.42,21.3,21.3,0,0,0,4.79-1.38A25.33,25.33,0,0,0,193,95.32a35.48,35.48,0,0,0,4.61-3.77v5.87q0,6.81-3.65,10.65t-10.47,3.83q-8,0-10.29-6.11H148.77a24.74,24.74,0,0,0,3.83,9.28,29.13,29.13,0,0,0,7.36,7.42,36,36,0,0,0,10.48,5,49.14,49.14,0,0,0,25,.35,38.85,38.85,0,0,0,9.75-3.94A29.94,29.94,0,0,0,212.5,118a22.53,22.53,0,0,0,4.49-7.36,39.59,39.59,0,0,0,1.68-7.18,65,65,0,0,0,.6-9.22V37H197.6Zm-.06,29.5a15.19,15.19,0,0,1-3,4.49,13.13,13.13,0,0,1-4.43,3,13.9,13.9,0,0,1-5.44,1.08,14.25,14.25,0,0,1-5.57-1.08,13.23,13.23,0,0,1-4.43-3,14.48,14.48,0,0,1-2.93-4.49,14.2,14.2,0,0,1-1.08-5.56A12.9,12.9,0,0,1,171.8,62a14.25,14.25,0,0,1,3-4.37,15.78,15.78,0,0,1,4.43-3,12.9,12.9,0,0,1,5.39-1.14,13.6,13.6,0,0,1,5.32,1.08,14,14,0,0,1,4.49,3,14.84,14.84,0,0,1,3,4.43,13.72,13.72,0,0,1,0,11Z"/><path class="cls-1" d="M296.56,54.39A30.52,30.52,0,0,0,288.84,44a36.2,36.2,0,0,0-11.73-6.82,42.52,42.52,0,0,0-14.66-2.46,42,42,0,0,0-14.78,2.52A36.33,36.33,0,0,0,236,44.1a31.36,31.36,0,0,0-7.66,10.29,30,30,0,0,0-2.75,12.75,33.33,33.33,0,0,0,2.75,13.7,31.7,31.7,0,0,0,7.6,10.59,33.55,33.55,0,0,0,11.55,6.82,43,43,0,0,0,14.6,2.4,44.9,44.9,0,0,0,14.9-2.4,34.32,34.32,0,0,0,11.78-6.76,31.58,31.58,0,0,0,7.72-10.41,31.18,31.18,0,0,0,2.81-13.35A31.75,31.75,0,0,0,296.56,54.39ZM275.32,73.06a15.39,15.39,0,0,1-3,4.49,13.23,13.23,0,0,1-4.43,3,14.27,14.27,0,0,1-10.89,0,13.13,13.13,0,0,1-4.43-3,15.19,15.19,0,0,1-3-4.49,13.85,13.85,0,0,1-1.14-5.68A12.9,12.9,0,0,1,249.57,62a15.43,15.43,0,0,1,3-4.43,13.28,13.28,0,0,1,4.43-3,14.27,14.27,0,0,1,10.89,0,13.38,13.38,0,0,1,4.43,3,15.52,15.52,0,0,1,3,4.49,13.31,13.31,0,0,1,1.14,5.45,13.56,13.56,0,0,1-1.14,5.56Z"/><path class="cls-2" d="M75.24,34.27A32,32,0,0,0,55,41.12a2.45,2.45,0,0,1-3,0,32,32,0,0,0-20.28-6.85C14,34.53,0,49.39,0,67.07v31.3H21.66V66.73A10.7,10.7,0,0,1,31.14,56,10.5,10.5,0,0,1,42.6,65.42q0,.5,0,1V98.37H64.31V66.73A10.69,10.69,0,0,1,73.77,56a10.49,10.49,0,0,1,11.45,9.43q0,.5,0,1V98.37h21.66V67.07C106.92,49.39,92.92,34.53,75.24,34.27Z"/><path class="cls-2" d="M23.63.14l18,10.39a1,1,0,0,1,0,1.74l-18,10.39a1,1,0,0,1-1.51-.87V1A1,1,0,0,1,23.63.14Z"/><path class="cls-2" d="M66.61.14l18,10.39a1,1,0,0,1,0,1.74l-18,10.39a1,1,0,0,1-1.5-.87V1a1,1,0,0,1,1.5-.87Z"/></g></g></svg>